<?xml version="1.0" encoding="utf-8"?>
<!-- Generator: Adobe Illustrator 21.1.0, SVG Export Plug-In . SVG Version: 6.00 Build 0)  -->
<svg version="1.1" id="Layer_1" xmlns="http://www.w3.org/2000/svg" xmlns:xlink="http://www.w3.org/1999/xlink" x="0px" y="0px"
	 viewBox="0 0 886 272" style="enable-background:new 0 0 886 272;" xml:space="preserve">
<style type="text/css">
	.st0{fill:#FFFFFF;}
</style>
<g>
	<path class="st0" d="M874,11v250H13V11H874 M880,5H7v262h873V5L880,5z"/>
</g>
<rect x="459" y="23" class="st0" width="405" height="226"/>
<g>
	<path d="M553.2,88.6h-6.4c-1,0-1.5,0.9-1.9,1.9l-8.9,34.2c-0.2,0.7-0.7,1-1.4,1c-0.7,0-0.9-0.3-0.9-1.2V81c0-0.3,0.3-0.7,0.9-0.7
		H585c0.5,0,0.9,0.3,0.9,0.7v43.5c0,0.9-0.2,1.2-0.9,1.2c-0.7,0-1.2-0.3-1.4-1l-8.9-34.2c-0.3-1-0.9-1.9-1.9-1.9h-6.4V197
		c0,2.1,0.2,3.6,1.4,4.8l5.2,5c0.5,0.5,1.2,1,1.2,1.5c0,0.5-0.2,1-1,1h-26.7c-0.9,0-1-0.5-1-1c0-0.5,0.7-1,1.2-1.5l5.2-5
		c1.2-1.2,1.4-2.8,1.4-4.8V88.6z"/>
	<path d="M615.1,92.7c0-2.1-0.3-3.6-1.5-4.8l-5.2-5c-0.3-0.5-1.2-1-1.2-1.5s0.3-1,1-1h27c0.7,0,1,0.5,1,1s-0.9,1-1.2,1.5l-5.2,5
		c-1.2,1.2-1.5,2.8-1.5,4.8V197c0,2.1,0.3,3.6,1.5,4.8l5.2,5c0.3,0.5,1.2,1,1.2,1.5c0,0.5-0.3,1-1,1h-27c-0.7,0-1-0.5-1-1
		c0-0.5,0.9-1,1.2-1.5l5.2-5c1.2-1.2,1.5-2.8,1.5-4.8V92.7z"/>
	<path d="M679.6,80.3c1.5,0,2.2,1.2,2.4,2.9l11.4,74.5h0.3l10.5-74.5c0.2-1.7,0.7-2.9,1.9-2.9h21.5c0.7,0,1,0.5,1,0.9
		c0,0.7-0.7,1.2-1.2,1.7l-4.3,5c-1,1.4-1.4,2.8-1.4,4.8V197c0,2.1,0.3,3.4,1.4,4.8l4.3,5c0.5,0.5,1.2,1,1.2,1.7c0,0.3-0.3,0.9-1,0.9
		h-24.1c-0.9,0-1-0.5-1-0.9c0-0.7,0.7-1.2,1.2-1.9l3.6-4.6c1-1.4,1.2-2.9,1.2-5v-83.2h-0.3L695.1,208c-0.2,0.9-0.5,1.4-1.4,1.4h-3.8
		c-0.5,0-0.7-0.7-0.9-1.5l-13.9-94.1h-0.3V197c0,2.1,0.2,3.6,1.2,5l3.6,4.6c0.5,0.7,1.2,1.2,1.2,1.9c0,0.3-0.3,0.9-1,0.9h-21.2
		c-0.7,0-1-0.5-1-0.9c0-0.7,0.9-1.2,1.2-1.7l4.3-5c1-1.4,1.5-2.8,1.5-4.8V92.7c0-2.1-0.5-3.4-1.5-4.8l-4.3-5c-0.3-0.5-1.2-1-1.2-1.7
		c0-0.3,0.3-0.9,1-0.9H679.6z"/>
	<path d="M771.1,139.3h3.8c0.9,0,1.5-0.3,1.9-1.2l6-12c0.3-0.7,0.5-1,1-1s0.7,0.3,0.7,1v36.5c0,0.5-0.2,0.9-0.7,0.9
		c-0.7,0-0.9-0.5-1.2-1.2l-5.8-12.6c-0.3-0.9-1-1.2-1.9-1.2h-3.8v52.3h9.8c2.2,0,4-1,4.6-3.1l9.3-33c0.2-0.7,0.7-1,1.2-1
		s0.9,0.5,0.9,1v43.2c0,0.9-0.5,1.5-1.4,1.5H751c-0.7,0-1-0.5-1-1c0-0.5,0.9-0.9,1.2-1.5l5.2-5c1.2-1.2,1.5-2.8,1.5-4.8V92.7
		c0-2.1-0.3-3.6-1.5-4.8l-5.2-5c-0.3-0.5-1.2-1-1.2-1.5s0.3-1,1-1h44.5c0.7,0,1.4,0.7,1.4,1.5v42.8c0,0.7-0.3,1-0.9,1
		c-0.7,0-1.2-0.5-1.4-1.2l-9.3-32.3c-0.7-2.2-2.2-3.3-4.5-3.3h-9.8V139.3z"/>
</g>
<g>
	<path class="st0" d="M120.3,86.7H114c-1,0-1.5,0.9-1.9,1.9l-8.9,34.2c-0.2,0.7-0.7,1-1.4,1s-0.9-0.3-0.9-1.2V79.1
		c0-0.3,0.3-0.7,0.9-0.7h50.4c0.5,0,0.9,0.3,0.9,0.7v43.5c0,0.9-0.2,1.2-0.9,1.2c-0.7,0-1.2-0.3-1.4-1l-8.9-34.2
		c-0.3-1-0.9-1.9-1.9-1.9h-6.4V195c0,2.1,0.2,3.6,1.4,4.8l5.2,5c0.5,0.5,1.2,1,1.2,1.5c0,0.5-0.2,1-1,1h-26.7c-0.9,0-1-0.5-1-1
		c0-0.5,0.7-1,1.2-1.5l5.2-5c1.2-1.2,1.4-2.8,1.4-4.8V86.7z"/>
	<path class="st0" d="M193.4,153.9l-12.7-63.1c-0.2-1.4-0.9-2.8-1.9-4L174,81c-0.3-0.5-1-1.2-1-1.9c0-0.5,0.5-0.7,1.2-0.7h24.6
		c0.9,0,1.4,0.2,1.4,0.9c0,0.5-0.5,1.2-1.2,1.7l-5.3,5c-0.7,0.7-0.9,1.9-0.5,3.3l7.7,38h0.3l8.1-38c0.3-1.4,0.2-2.6-0.7-3.3l-5.5-5
		c-0.7-0.5-1.2-1.2-1.2-1.7c0-0.7,0.7-0.9,1.5-0.9h22.7c0.9,0,1.4,0.2,1.4,0.7c0,0.7-0.5,1.2-1.2,1.9l-5.7,5.8c-0.9,1-1.4,2.4-1.7,4
		l-12.2,57.8V195c0,2.1,0.3,3.6,1.5,4.8l5.2,5c0.3,0.5,1.2,1,1.2,1.5c0,0.5-0.3,1-1,1h-27c-0.7,0-1-0.5-1-1c0-0.5,0.9-1,1.2-1.5
		l5.2-5c1.2-1.2,1.5-2.8,1.5-4.8V153.9z"/>
	<path class="st0" d="M254.5,90.8c0-2.1-0.5-3.4-1.5-4.8l-4.3-5c-0.3-0.5-1.2-1-1.2-1.7c0-0.3,0.3-0.9,1-0.9h20.6
		c1.2,0,1.7,1.2,2.1,2.9l15.8,74h0.3V90.8c0-2.1-0.3-3.4-1.5-4.6L281,81c-0.3-0.5-1.2-1-1.2-1.7c0-0.3,0.3-0.9,1-0.9h22.7
		c0.7,0,1,0.5,1,0.9c0,0.7-0.7,1.2-1.2,1.7l-4.3,5c-1,1.4-1.5,2.8-1.5,4.8v114.7c0,1.2-0.5,1.9-1.7,1.9h-7.2c-1.5,0-2.9-1.7-3.4-4.3
		L265,109.4h-0.3V195c0,2.1,0.5,3.4,1.7,4.6l4.6,5.2c0.5,0.5,1.2,1,1.2,1.7c0,0.3-0.3,0.9-1,0.9h-22.7c-0.7,0-1-0.5-1-0.9
		c0-0.7,0.9-1.2,1.2-1.7l4.3-5c1-1.4,1.5-2.8,1.5-4.8V90.8z"/>
	<path class="st0" d="M347,137.4h3.8c0.9,0,1.5-0.3,1.9-1.2l6-12c0.3-0.7,0.5-1,1-1c0.5,0,0.7,0.3,0.7,1v36.5c0,0.5-0.2,0.9-0.7,0.9
		c-0.7,0-0.9-0.5-1.2-1.2l-5.8-12.6c-0.3-0.9-1-1.2-1.9-1.2H347v52.3h9.8c2.2,0,4-1,4.6-3.1l9.3-33c0.2-0.7,0.7-1,1.2-1
		s0.9,0.5,0.9,1v43.2c0,0.9-0.5,1.5-1.4,1.5h-44.5c-0.7,0-1-0.5-1-1c0-0.5,0.9-0.9,1.2-1.5l5.2-5c1.2-1.2,1.5-2.8,1.5-4.8V90.8
		c0-2.1-0.3-3.6-1.5-4.8l-5.2-5c-0.3-0.5-1.2-1-1.2-1.5s0.3-1,1-1h44.5c0.7,0,1.4,0.7,1.4,1.5v42.8c0,0.7-0.3,1-0.9,1
		c-0.7,0-1.2-0.5-1.4-1.2l-9.3-32.3c-0.7-2.2-2.2-3.3-4.5-3.3H347V137.4z"/>
</g>
</svg>
