<?xml version="1.0" standalone="no"?>
<!DOCTYPE svg PUBLIC "-//W3C//DTD SVG 20010904//EN"
 "http://www.w3.org/TR/2001/REC-SVG-20010904/DTD/svg10.dtd">
<svg version="1.0" xmlns="http://www.w3.org/2000/svg"
 width="1024.000000pt" height="1024.000000pt" viewBox="0 0 1024.000000 1024.000000"
 preserveAspectRatio="xMidYMid meet">
<metadata>
Created by potrace 1.11, written by Peter Selinger 2001-2013
</metadata>
<g transform="translate(0.000000,1024.000000) scale(0.100000,-0.100000)"
fill="#000000" stroke="none">
<path d="M4431 10096 c-51 -15 -107 -73 -121 -126 -22 -83 9 -163 86 -220 39
-29 34 33 38 -515 2 -249 -1 -353 -10 -389 -9 -34 -10 -56 -2 -75 15 -40 13
-637 -2 -656 -8 -10 -10 -27 -5 -48 4 -17 9 -376 11 -797 l3 -765 -44 -42
c-25 -23 -45 -47 -46 -55 -7 -86 33 -149 116 -184 44 -18 159 -21 237 -6 52
10 61 3 46 -37 -11 -30 -4 -91 16 -133 9 -18 14 -41 13 -50 -11 -64 -167 -145
-337 -174 -69 -12 -238 -9 -303 5 -66 14 -77 29 -57 75 44 103 -22 252 -127
284 -54 16 -146 7 -192 -19 -23 -12 -41 -26 -41 -31 0 -4 -4 -8 -10 -8 -17 0
-11 72 10 114 28 58 49 69 108 55 73 -18 132 -53 185 -107 32 -34 59 -52 82
-56 23 -5 36 -14 41 -29 10 -31 12 -94 4 -138 -5 -25 -3 -42 4 -48 6 -5 49
-12 96 -16 47 -3 104 -8 128 -10 29 -3 52 1 72 14 22 13 45 17 78 14 41 -3 52
1 72 22 13 14 33 25 45 25 31 0 36 9 20 40 -20 38 -97 105 -207 181 -51 35
-122 90 -159 124 -75 68 -138 103 -291 160 -63 23 -126 52 -193 89 -50 27
-133 21 -186 -12 -58 -37 -89 -84 -142 -218 -52 -129 -80 -186 -100 -202 -15
-13 -18 -9 -57 88 -72 179 -272 384 -498 510 -177 98 -226 148 -151 152 50 2
61 -4 136 -73 87 -81 124 -100 179 -94 29 4 55 -2 102 -25 109 -51 182 -33
182 47 0 42 -37 71 -68 52 -22 -14 -52 -6 -52 14 0 9 16 17 41 21 93 15 125
53 114 136 -16 117 -111 245 -283 380 -30 24 -80 82 -118 137 -37 52 -80 107
-97 123 l-31 29 26 26 c38 38 58 87 58 142 0 72 -8 79 -64 58 -26 -10 -48 -16
-51 -14 -2 3 -5 36 -6 74 -2 74 -12 115 -28 115 -5 0 -12 -9 -16 -20 -8 -25
-143 -174 -162 -178 -19 -5 -53 36 -53 63 0 12 6 43 14 68 8 26 11 49 6 52
-21 13 -71 -20 -106 -71 -27 -39 -42 -53 -53 -48 -103 42 -138 43 -126 4 10
-32 -1 -39 -46 -27 -48 12 -61 0 -50 -42 13 -47 8 -56 -29 -57 -19 -1 -40 -2
-46 -3 -7 0 -15 -12 -18 -26 -3 -13 -19 -31 -34 -39 -20 -10 -27 -22 -27 -42
0 -21 -6 -30 -20 -32 -35 -7 -45 -21 -34 -48 13 -35 12 -41 -10 -47 -11 -3
-27 -21 -35 -42 -9 -20 -26 -45 -38 -55 -19 -15 -21 -20 -9 -34 12 -15 11 -19
-8 -32 -12 -9 -35 -44 -52 -79 -19 -38 -41 -67 -55 -74 -29 -13 -31 -27 -4
-36 26 -8 25 -19 -2 -56 -22 -30 -22 -31 -4 -44 10 -8 23 -12 27 -9 38 23 17
-60 -27 -106 -31 -33 -18 -55 30 -52 20 2 36 -2 36 -7 0 -13 -52 -67 -71 -73
-10 -4 -11 -9 -3 -17 13 -14 34 -19 88 -20 35 -1 38 -3 32 -25 -3 -12 -8 -41
-12 -62 -6 -43 -47 -104 -70 -104 -7 0 -14 -4 -14 -10 0 -16 34 -29 83 -31 26
-2 47 -8 48 -13 5 -80 35 -156 82 -204 18 -18 59 -48 92 -65 74 -40 191 -154
233 -228 40 -71 62 -156 56 -217 -15 -143 -45 -200 -120 -234 -24 -10 -44 -22
-44 -26 0 -4 14 -27 31 -52 28 -41 30 -50 26 -105 -7 -91 -47 -153 -116 -181
l-42 -16 27 -36 c30 -38 53 -94 54 -129 0 -31 -54 -89 -95 -103 -51 -17 -55
-50 -15 -110 24 -35 32 -77 20 -100 -10 -19 -12 -18 -63 11 -137 81 -250 202
-320 344 -71 144 -91 234 -91 415 0 128 8 218 23 269 15 49 16 240 2 275 -14
34 -24 27 -41 -29 -15 -50 -47 -103 -77 -132 -29 -28 -32 -28 -42 -1 -7 20 -9
20 -47 -15 -37 -33 -53 -60 -117 -197 -12 -25 -23 -47 -24 -49 -1 -2 -9 2 -17
8 -25 21 -33 -7 -62 -215 -3 -22 -10 -31 -21 -30 -14 1 -16 -8 -14 -49 8 -151
31 -274 67 -352 17 -37 18 -53 4 -53 -6 0 -29 -9 -53 -19 -23 -11 -54 -22 -70
-25 -26 -6 -36 -29 -18 -41 8 -5 101 -171 101 -181 0 -2 -7 -4 -15 -4 -29 0
-90 -69 -130 -145 -22 -42 -57 -97 -79 -121 l-38 -44 31 -11 c17 -6 31 -16 32
-22 5 -51 -30 -178 -56 -207 -20 -22 -4 -43 27 -35 39 10 62 -46 65 -160 2
-119 2 -118 13 -135 9 -13 12 -13 24 3 13 17 16 17 44 -10 16 -15 61 -55 99
-88 86 -74 123 -124 130 -176 9 -68 31 -46 52 54 16 73 8 139 -30 257 -61 190
-65 272 -17 367 27 54 102 126 154 148 57 25 257 25 342 0 34 -10 64 -21 67
-25 10 -16 -27 -48 -70 -60 -52 -15 -57 -30 -16 -60 53 -37 75 -112 51 -174
-12 -33 -88 -116 -106 -116 -31 0 -7 -38 37 -59 66 -32 88 -132 39 -176 -27
-24 -25 -38 9 -78 24 -26 35 -57 56 -152 49 -222 132 -382 265 -516 179 -179
433 -235 720 -157 41 11 80 23 85 27 6 4 32 16 59 26 69 25 162 121 205 210
18 38 48 114 66 170 29 89 34 97 40 70 3 -16 9 -41 12 -55 3 -14 8 -34 10 -45
18 -100 102 -305 125 -305 4 0 8 -5 8 -11 0 -20 98 -135 178 -210 172 -161
373 -293 762 -503 145 -79 290 -172 410 -264 95 -72 320 -295 320 -316 0 -8
-10 -16 -22 -18 -53 -9 -361 2 -448 17 -14 3 -53 7 -88 10 -35 4 -73 8 -85 11
-12 2 -42 6 -67 9 -25 3 -58 7 -75 10 -16 2 -57 7 -90 10 -33 3 -121 15 -195
26 -74 11 -151 23 -170 25 -19 3 -42 7 -50 9 -8 2 -31 7 -50 10 -33 6 -211 41
-255 50 -43 10 -71 16 -90 19 -97 19 -562 150 -574 161 -3 3 3 45 13 93 25
118 29 156 22 206 -16 105 -167 200 -366 231 -19 3 -46 8 -60 10 -14 3 -113 7
-220 10 l-195 4 -80 45 c-159 92 -330 112 -420 50 -45 -30 -59 -30 -164 2
-103 31 -114 39 -106 73 20 89 102 331 141 420 13 29 24 66 24 81 0 29 -36 89
-60 100 -8 4 -50 24 -93 45 -88 41 -190 79 -287 105 -36 10 -99 27 -140 39
-140 38 -266 15 -341 -62 -40 -41 -90 -158 -177 -417 -33 -96 -72 -206 -87
-245 -78 -202 -104 -308 -98 -408 9 -162 216 -391 508 -562 123 -72 255 -141
285 -150 14 -4 61 -24 105 -45 44 -21 88 -40 98 -43 21 -8 21 -13 2 -68 -23
-65 -30 -106 -29 -186 2 -128 56 -188 259 -287 197 -97 349 -167 415 -193 36
-14 79 -31 95 -38 102 -43 304 -105 738 -227 318 -89 368 -102 417 -112 14 -2
47 -9 74 -15 27 -7 61 -13 75 -15 14 -3 82 -16 151 -29 69 -14 181 -35 250
-46 126 -21 154 -25 245 -36 28 -3 68 -8 90 -10 22 -3 63 -7 90 -10 28 -3 66
-8 85 -10 19 -2 80 -7 135 -10 55 -4 111 -8 125 -11 135 -22 1227 -21 1455 0
22 3 87 7 145 10 99 6 121 8 230 20 25 3 65 8 90 10 25 3 68 8 95 11 28 4 66
8 85 10 64 7 324 45 370 55 25 5 62 12 82 15 21 2 57 9 80 14 24 6 55 12 70
15 28 5 162 32 208 42 14 3 35 7 46 9 12 3 71 21 130 39 60 19 224 67 366 105
249 69 346 101 591 195 242 93 420 178 580 278 94 57 112 77 132 142 21 68 19
119 -9 225 -25 97 -24 102 24 116 14 4 54 21 90 38 36 16 88 39 116 52 131 58
373 209 489 306 94 78 137 124 194 207 68 100 84 146 77 224 -10 114 -26 173
-136 488 -34 96 -78 227 -99 290 -63 192 -107 257 -200 299 -101 45 -380 -4
-599 -105 -41 -19 -75 -34 -77 -34 -2 0 -31 -16 -65 -36 -102 -62 -109 -84
-55 -195 19 -41 35 -80 35 -88 0 -8 20 -76 44 -151 25 -74 46 -151 48 -170 l3
-35 -85 -32 c-95 -37 -141 -38 -187 -5 -83 59 -210 48 -376 -34 -32 -15 -57
-30 -57 -34 0 -17 -60 -30 -125 -28 -121 3 -358 -16 -455 -38 -89 -20 -146
-42 -205 -80 -131 -83 -147 -135 -96 -322 17 -63 20 -107 9 -117 -5 -4 -372
-102 -525 -140 -194 -48 -349 -78 -578 -110 -22 -3 -65 -10 -95 -15 -30 -5
-77 -12 -105 -15 -27 -3 -77 -10 -110 -15 -113 -17 -130 -19 -185 -25 -52 -5
-78 -8 -195 -19 -94 -10 -180 -16 -292 -21 -108 -6 -113 -5 -113 14 0 11 12
34 27 53 50 62 208 213 293 279 73 57 282 199 293 199 6 0 226 124 282 158 28
17 68 41 90 53 22 12 49 29 60 38 11 10 45 33 75 51 168 101 390 283 479 393
94 118 184 324 207 477 3 19 9 39 13 43 5 5 25 -43 45 -107 39 -121 74 -196
109 -235 50 -54 196 -140 297 -174 118 -39 290 -41 425 -4 273 75 495 365 551
717 3 19 7 46 9 59 2 14 20 41 40 61 l36 37 -25 44 c-44 76 -32 129 40 172 51
31 55 51 15 71 -64 33 -108 119 -95 185 4 17 24 51 45 75 22 24 39 49 39 55 0
5 -17 15 -37 20 -50 14 -83 38 -77 56 12 29 155 54 294 51 66 -1 96 -7 133
-25 111 -54 179 -168 170 -286 -2 -27 -20 -108 -39 -180 -20 -71 -38 -155 -41
-185 -6 -65 11 -169 31 -189 13 -12 15 -9 21 25 10 55 43 102 116 165 35 30
82 71 103 92 36 35 41 37 52 22 11 -15 13 -15 23 3 6 11 12 69 15 130 3 87 7
115 22 135 14 18 25 24 41 20 41 -9 44 6 13 61 -19 33 -32 74 -36 106 -2 29
-5 55 -6 59 -2 21 5 30 31 39 l30 11 -40 42 c-21 23 -47 64 -57 92 -17 52 -89
136 -145 172 l-28 18 20 21 c11 12 38 56 60 98 l40 77 -57 16 c-31 9 -69 24
-84 33 l-27 15 20 38 c31 62 49 155 55 287 5 97 4 122 -7 120 -9 -2 -16 24
-25 88 -7 51 -20 109 -29 130 -14 34 -17 36 -28 20 -12 -16 -19 -6 -64 86 -71
144 -143 223 -143 157 0 -50 -85 47 -110 126 -27 85 -25 83 -40 55 -23 -42
-19 -163 14 -425 21 -173 15 -273 -24 -396 -19 -57 -42 -117 -51 -134 -10 -16
-30 -55 -45 -85 -17 -34 -58 -86 -108 -135 -82 -82 -200 -169 -220 -162 -20 7
-17 43 9 112 31 83 31 91 1 99 -41 10 -107 78 -109 111 -2 43 19 98 48 125 33
31 31 46 -6 54 -45 9 -92 64 -113 131 -22 68 -17 110 18 162 32 47 33 59 1 67
-34 9 -90 59 -108 99 -37 77 -38 186 -3 286 49 141 57 150 266 304 100 73 146
135 156 208 7 56 22 69 78 69 19 0 42 7 50 16 17 17 13 34 -8 34 -16 0 -52 39
-60 65 -11 36 -15 114 -6 120 4 3 19 1 32 -4 16 -6 33 -3 56 7 33 16 42 32 18
32 -13 0 -76 63 -76 76 0 3 12 3 28 0 16 -4 35 -1 46 7 19 14 18 16 -12 53
-17 22 -34 54 -38 72 -6 29 -4 32 19 32 37 0 42 15 17 55 l-21 34 21 11 c25
13 26 27 1 35 -10 3 -36 37 -56 76 -20 39 -43 73 -50 76 -10 3 -12 14 -9 33 4
19 0 33 -14 46 -11 11 -27 34 -36 52 -9 17 -23 32 -31 32 -20 0 -29 20 -16 33
6 6 11 21 11 34 0 18 -7 25 -30 30 -25 4 -30 10 -30 34 0 32 -24 61 -45 53
-10 -4 -12 0 -8 16 8 29 -11 40 -65 40 l-44 0 6 42 c7 52 -6 71 -40 57 -43
-16 -54 -11 -54 20 0 16 -5 31 -12 33 -13 5 -60 -10 -95 -30 -12 -7 -24 -12
-27 -12 -3 0 -20 24 -36 54 -23 40 -40 58 -68 69 -20 8 -41 12 -45 7 -5 -4 -1
-29 7 -54 20 -59 20 -76 -2 -102 -29 -36 -48 -36 -75 0 -14 17 -41 48 -61 68
-20 20 -36 40 -36 45 0 16 -42 55 -51 46 -11 -11 -18 -53 -20 -124 -2 -38 -6
-58 -13 -56 -83 31 -87 32 -96 17 -25 -40 -5 -133 42 -193 l30 -38 -43 -47
c-24 -26 -46 -49 -49 -52 -4 -3 -22 -27 -40 -55 -19 -27 -70 -84 -113 -125
-225 -212 -239 -233 -263 -380 -13 -84 -13 -85 11 -106 13 -12 43 -24 67 -28
61 -9 71 -17 54 -41 -12 -17 -17 -18 -39 -6 -32 17 -54 9 -67 -23 -15 -40 5
-83 46 -96 38 -13 77 -4 124 28 16 11 47 17 91 18 36 1 76 7 90 14 13 7 58 45
99 86 66 64 80 73 115 75 53 2 65 1 65 -10 0 -20 -78 -83 -159 -128 -47 -26
-96 -57 -111 -68 -14 -11 -51 -38 -83 -59 -71 -48 -175 -152 -232 -231 -47
-66 -105 -172 -105 -193 0 -19 -29 -72 -39 -72 -13 0 -40 50 -90 165 -103 237
-143 282 -258 289 -51 3 -65 -1 -138 -39 -44 -23 -139 -66 -210 -95 -72 -29
-149 -66 -173 -81 -49 -33 -62 -36 -62 -12 0 9 -9 36 -21 60 -15 31 -31 48
-57 59 -56 23 -139 28 -222 12 -100 -20 -124 -11 -144 50 -9 26 -18 73 -20
105 -4 42 -11 66 -30 87 -25 31 -35 69 -41 162 -3 61 -11 82 -26 73 -5 -4 -9
-3 -10 2 0 4 -2 15 -4 23 -11 50 -15 106 -19 282 -4 184 -3 197 15 214 20 18
26 54 8 54 -6 0 -9 7 -7 16 2 8 5 14 8 13 15 -7 55 29 86 77 33 51 74 81 94
69 14 -9 27 47 29 127 2 50 -2 79 -10 83 -6 5 -44 7 -84 6 -49 -1 -76 2 -81
10 -14 23 -7 135 11 172 22 48 42 64 97 78 72 20 123 -8 143 -77 11 -40 -48
-72 -75 -41 -6 6 -20 27 -31 46 -16 27 -23 31 -30 20 -13 -19 -1 -88 22 -125
26 -43 61 -64 106 -64 79 1 135 66 137 160 1 22 6 26 51 30 99 11 124 40 130
150 4 74 8 87 35 121 16 21 30 42 30 47 0 14 -26 22 -69 22 -47 0 -85 -28
-102 -75 -20 -54 -32 -47 -31 17 1 56 -109 133 -150 106 -10 -6 -7 -13 11 -28
17 -15 22 -26 17 -44 -6 -25 -58 -56 -94 -56 -45 0 -106 -32 -155 -82 -29 -29
-66 -60 -83 -69 -21 -11 -41 -36 -59 -73 -24 -49 -28 -70 -29 -149 -1 -58 -5
-96 -13 -102 -7 -5 -14 -30 -17 -54 -3 -24 -7 -45 -9 -48 -12 -11 -57 48 -71
93 -30 93 -25 266 9 338 10 21 58 79 106 129 74 75 88 94 83 114 -6 24 5 46
51 97 33 38 30 62 -8 58 -22 -3 -27 1 -27 17 0 12 6 21 14 21 8 0 24 9 37 19
20 16 25 31 30 103 4 45 10 92 14 104 8 26 -38 84 -67 84 -13 0 -24 10 -31 29
-13 35 -54 60 -107 67 -23 3 -52 9 -65 14 -20 8 -35 0 -104 -56 -44 -36 -85
-74 -91 -84 -6 -11 -17 -17 -25 -14 -24 9 -75 -81 -75 -133 0 -39 -3 -44 -37
-62 -47 -24 -67 -46 -82 -91 -6 -19 -20 -50 -31 -68 l-21 -34 -30 38 c-17 21
-52 60 -79 86 -63 62 -100 116 -100 149 0 14 -23 63 -51 109 -55 92 -65 122
-55 175 7 33 14 40 69 65 158 74 343 84 617 34 118 -22 241 -40 325 -48 28 -3
75 -8 105 -12 190 -22 281 -28 435 -27 168 1 303 15 415 42 25 7 54 14 65 16
43 10 183 68 242 101 159 88 323 261 323 339 0 12 -7 11 -34 -4 -37 -21 -142
-56 -197 -65 -19 -3 -45 -8 -58 -11 -118 -24 -572 -23 -612 1 -3 2 -21 6 -40
9 -265 46 -474 112 -729 232 -124 59 -269 103 -385 118 -53 7 -234 8 -275 1
-14 -2 -49 -7 -77 -10 l-53 -7 0 28 c0 49 -41 115 -93 150 -51 34 -91 39 -156
19z m144 -1655 c-6 -20 23 -51 52 -55 14 -2 18 -12 18 -42 0 -53 10 -66 40
-54 23 9 65 10 65 1 0 -2 -23 -26 -51 -52 -92 -86 -149 -68 -143 46 1 22 4 72
6 112 2 39 7 69 11 66 4 -2 5 -13 2 -22z m198 -496 c1 -6 -32 -12 -75 -15 -42
-3 -79 -7 -82 -10 -8 -9 -10 -209 -2 -217 8 -8 13 -9 41 -12 8 0 27 -15 42
-32 48 -54 77 -79 101 -85 16 -5 22 -14 22 -33 0 -31 9 -45 33 -54 20 -7 20
-5 1 -317 -9 -159 -11 -171 -32 -193 -14 -16 -25 -53 -37 -129 -15 -87 -21
-109 -36 -113 -11 -4 -20 -14 -20 -23 -8 -98 -30 -182 -49 -182 -17 0 -19 0
-58 -14 -22 -8 -45 -11 -52 -6 -8 5 -13 54 -16 166 -5 185 -6 1145 -1 1219 l3
50 80 5 c111 7 134 6 137 -5z m1820 -1656 c17 -13 34 -43 46 -82 10 -34 17
-64 15 -66 -2 -2 -17 8 -34 22 -50 42 -98 52 -180 38 -61 -11 -76 -18 -114
-56 -68 -65 -91 -159 -62 -243 16 -45 16 -45 -29 -57 -16 -5 -37 -10 -45 -13
-30 -9 -257 -10 -296 -2 -21 5 -55 12 -74 15 -95 16 -159 45 -199 90 -33 38
-38 66 -20 112 6 15 11 51 10 78 l0 50 39 -3 c23 -2 67 5 106 17 61 20 68 21
84 6 17 -16 14 -21 -66 -98 -93 -91 -111 -130 -62 -135 15 -2 35 -13 43 -25
12 -17 26 -22 79 -23 39 -1 73 -8 89 -19 24 -15 50 -15 147 1 14 2 50 6 80 10
72 8 79 17 67 97 -13 87 -5 115 41 134 20 8 64 40 97 71 63 58 142 102 186
102 15 0 38 -9 52 -21z m462 -1461 c32 -56 91 -145 130 -197 86 -116 214 -296
238 -334 l18 -28 -73 -82 c-40 -45 -75 -84 -78 -87 -3 -3 -22 -27 -41 -55
-101 -141 -163 -284 -185 -423 -8 -52 -14 -53 -15 -1 0 24 -2 53 -5 64 -21 99
-11 154 37 194 21 18 16 29 -23 54 -37 23 -36 56 3 89 25 23 28 30 19 47 -6
11 -28 25 -49 31 -74 20 -89 47 -151 285 -12 44 -31 118 -44 165 -22 83 -22
86 -4 116 10 18 21 49 23 70 16 126 26 146 88 175 23 10 44 18 47 18 3 0 32
-45 65 -101z m-3619 53 c38 -28 41 -34 52 -104 6 -41 19 -96 27 -122 16 -46
16 -50 -10 -144 -71 -250 -96 -336 -108 -359 -6 -14 -37 -38 -67 -54 -30 -16
-58 -33 -63 -37 -4 -4 6 -27 23 -50 37 -50 36 -68 -5 -91 -35 -20 -34 -29 7
-86 27 -37 30 -48 23 -81 -4 -21 -10 -63 -14 -93 l-7 -55 -26 85 c-61 191
-160 357 -299 497 l-71 71 28 40 c95 131 333 473 353 507 69 115 90 125 157
76z m4389 -1043 c147 -152 206 -238 239 -345 7 -21 4 -22 -23 -19 -47 5 -56
-6 -36 -48 17 -34 17 -38 1 -55 -37 -40 -116 -65 -207 -65 -77 0 -93 3 -152
32 -81 40 -141 99 -176 172 -21 46 -26 69 -25 135 1 98 23 153 85 213 38 37
142 109 160 111 4 1 64 -59 134 -131z m-5081 58 c148 -113 160 -132 160 -266
0 -167 -95 -279 -274 -325 -176 -46 -356 33 -353 155 2 81 116 244 273 393 57
53 108 97 114 97 5 0 41 -24 80 -54z"/>
</g>
</svg>
